<svg id="logosandtypes_com" xmlns="http://www.w3.org/2000/svg" viewBox="0 0 150 150.2"><style>.st1{fill:#5468ff}</style><g id="Layer_3_2_"><g id="Layer_2_1_"><path id="Layer_3" d="M0 .2h150v150H0V.2z" fill="none"/></g></g><g id="Algolia"><path class="st1" d="M76.3 55.6c-12.4 0-22.4 10-22.4 22.4s10 22.4 22.4 22.4c12.4 0 22.4-10 22.4-22.4s-10-22.4-22.4-22.4zm15.8 14.2l-14.8 7.7c-.4.2-1-.1-1-.6V60.2c0-.4.3-.6.7-.6 6.6.2 12.3 3.9 15.4 9.3.1.3 0 .7-.3.9z"/><path class="st1" d="M116.4 17.8H33.6c-8.2 0-14.8 6.6-14.8 14.8v82.9c0 8.2 6.7 14.8 14.8 14.8h82.8c8.2 0 14.8-6.6 14.8-14.8V32.6c0-8.2-6.6-14.8-14.8-14.8zM65.6 39c0-2.7 2.2-4.9 4.9-4.9h11.4c2.7 0 4.9 2.2 4.9 4.9v3.9c0 .4-.4.7-.8.6-3.1-.9-6.3-1.3-9.6-1.3-3.4 0-6.7.5-9.9 1.4-.4.1-.9-.2-.9-.6v-4zM44.3 55.2c-1.9-1.9-1.9-5 0-6.9l2.3-2.3c1.9-1.9 5-1.9 6.9 0l1.9 1.9c.3.3.2.8-.1 1-1.6 1.1-3 2.4-4.4 3.7-1.4 1.4-2.6 2.8-3.7 4.4-.3.3-.7.4-1 .1l-1.9-1.9c.1 0 0 0 0 0zm32 54.5c-17.6 0-31.8-14.2-31.8-31.8s14.2-31.8 31.8-31.8 31.8 14.2 31.8 31.7-14.2 31.9-31.8 31.9z"/></g></svg>