<svg width="150" height="150.2" xmlns="http://www.w3.org/2000/svg">
 <g id="Layer_1">
  <title>Layer 1</title>
  <g stroke="null" id="Algolia">
   <path stroke="null" id="svg_1" fill="#5468ff" d="m76.71637,50.69075c-16.37153,0 -29.57438,13.20285 -29.57438,29.57438s13.20285,29.57438 29.57438,29.57438c16.37153,0 29.57438,-13.20285 29.57438,-29.57438s-13.20285,-29.57438 -29.57438,-29.57438zm20.8605,18.74804l-19.54022,10.16619c-0.52811,0.26406 -1.32028,-0.13203 -1.32028,-0.79217l0,-22.04876c0,-0.52811 0.39609,-0.79217 0.9242,-0.79217c8.71388,0.26406 16.2395,5.14911 20.33239,12.27865c0.13203,0.39609 0,0.9242 -0.39609,1.18826z" class="st1"/>
   <path stroke="null" id="svg_2" fill="#5468ff" d="m129.65979,0.78398l-109.31958,0c-10.82634,0 -19.54022,8.71388 -19.54022,19.54022l0,109.45161c0,10.82634 8.84591,19.54022 19.54022,19.54022l109.31958,0c10.82634,0 19.54022,-8.71388 19.54022,-19.54022l0,-109.45161c0,-10.82634 -8.71388,-19.54022 -19.54022,-19.54022zm-67.07047,27.99004c0,-3.56477 2.90463,-6.4694 6.4694,-6.4694l15.05125,0c3.56477,0 6.4694,2.90463 6.4694,6.4694l0,5.14911c0,0.52811 -0.52811,0.9242 -1.05623,0.79217c-4.09288,-1.18826 -8.31779,-1.71637 -12.67473,-1.71637c-4.48897,0 -8.84591,0.66014 -13.07082,1.8484c-0.52811,0.13203 -1.18826,-0.26406 -1.18826,-0.79217l0,-5.28114zm-28.12207,21.38861c-2.50854,-2.50854 -2.50854,-6.60142 0,-9.10997l3.03666,-3.03666c2.50854,-2.50854 6.60142,-2.50854 9.10997,0l2.50854,2.50854c0.39609,0.39609 0.26406,1.05623 -0.13203,1.32028c-2.11246,1.45231 -3.96085,3.16868 -5.80925,4.88505c-1.8484,1.8484 -3.43274,3.6968 -4.88505,5.80925c-0.39609,0.39609 -0.9242,0.52811 -1.32028,0.13203l-2.50854,-2.50854c0.13203,0 0,0 0,0zm42.24911,71.95552c-23.23701,0 -41.98506,-18.74804 -41.98506,-41.98506s18.74804,-41.98506 41.98506,-41.98506s41.98506,18.74804 41.98506,41.85303s-18.74804,42.11709 -41.98506,42.11709z" class="st1"/>
  </g>
 </g>
</svg>